<svg width="23" height="22" viewBox="0 0 23 22" fill="none" xmlns="http://www.w3.org/2000/svg">
<path d="M11.5 0C5.15857 0 0 4.93429 0 11C0 17.0657 5.15857 22 11.5 22C17.8414 22 23 17.0657 23 11C23 4.93429 17.8414 0 11.5 0ZM11.5 1.57143C16.9543 1.57143 21.3571 5.78286 21.3571 11C21.3571 16.2171 16.9543 20.4286 11.5 20.4286C6.04571 20.4286 1.64286 16.2171 1.64286 11C1.64286 5.78286 6.04571 1.57143 11.5 1.57143ZM16.6684 6.51514L9.03571 13.8144L6.33321 11.2294L5.16843 12.342L9.03571 16.0396L17.8332 7.62771L16.6684 6.51514Z" fill="white"/>
</svg>
