<svg width="25" height="24" viewBox="0 0 25 24" fill="none" xmlns="http://www.w3.org/2000/svg">
<path d="M6.005 15.6C5.83923 15.3244 5.56621 15.1233 5.246 15.0409C4.92578 14.9586 4.5846 15.0017 4.2975 15.1608L2.1325 16.3608C1.84774 16.5211 1.64057 16.7829 1.5562 17.0893C1.47183 17.3957 1.51711 17.7216 1.68216 17.996C1.8472 18.2705 2.11862 18.4711 2.43717 18.5541C2.75572 18.6371 3.09555 18.5958 3.3825 18.4392L5.5475 17.2392C5.83459 17.0801 6.04408 16.818 6.12987 16.5106C6.21567 16.2032 6.17075 15.8756 6.005 15.6ZM2.1325 7.6392L4.2975 8.8392C4.43971 8.91924 4.59701 8.97148 4.76034 8.99292C4.92367 9.01436 5.08981 9.00457 5.24918 8.96412C5.40856 8.92367 5.55802 8.85335 5.68897 8.75722C5.81993 8.66109 5.92978 8.54105 6.0122 8.40399C6.09463 8.26694 6.14801 8.11559 6.16925 7.95865C6.1905 7.80172 6.1792 7.6423 6.13601 7.48957C6.09282 7.33684 6.01859 7.19382 5.91758 7.06875C5.81658 6.94368 5.69081 6.83902 5.5475 6.7608L3.3825 5.5608C3.09555 5.40418 2.75572 5.36288 2.43717 5.4459C2.11862 5.52893 1.8472 5.72954 1.68216 6.00397C1.51711 6.27839 1.47183 6.60435 1.5562 6.9107C1.64057 7.21706 1.84774 7.47894 2.1325 7.6392ZM5 12C5 11.6817 4.8683 11.3765 4.63388 11.1515C4.39946 10.9264 4.08152 10.8 3.75 10.8H1.25C0.918479 10.8 0.600537 10.9264 0.366116 11.1515C0.131696 11.3765 0 11.6817 0 12C0 12.3183 0.131696 12.6235 0.366116 12.8485C0.600537 13.0736 0.918479 13.2 1.25 13.2H3.75C4.08152 13.2 4.39946 13.0736 4.63388 12.8485C4.8683 12.6235 5 12.3183 5 12ZM18.995 8.4C19.1608 8.67561 19.4338 8.87671 19.754 8.95908C20.0742 9.04145 20.4154 8.99832 20.7025 8.8392L22.8675 7.6392C23.0108 7.56098 23.1366 7.45632 23.2376 7.33125C23.3386 7.20618 23.4128 7.06316 23.456 6.91043C23.4992 6.7577 23.5105 6.59828 23.4893 6.44135C23.468 6.28441 23.4146 6.13306 23.3322 5.99601C23.2498 5.85895 23.1399 5.73891 23.009 5.64278C22.878 5.54665 22.7286 5.47633 22.5692 5.43588C22.4098 5.39543 22.2437 5.38564 22.0803 5.40708C21.917 5.42852 21.7597 5.48076 21.6175 5.5608L19.4525 6.7608C19.1654 6.91993 18.9559 7.18203 18.8701 7.48944C18.7843 7.79685 18.8292 8.12439 18.995 8.4ZM16.25 5.7648C16.5371 5.92392 16.8783 5.96704 17.1985 5.88468C17.5187 5.80231 17.7917 5.60121 17.9575 5.3256L19.2075 3.2472C19.2909 3.11068 19.3453 2.95967 19.3676 2.80287C19.39 2.64607 19.3798 2.48658 19.3376 2.33358C19.2955 2.18059 19.2222 2.0371 19.1221 1.91138C19.022 1.78567 18.8969 1.68021 18.7542 1.60108C18.6114 1.52195 18.4537 1.47071 18.2903 1.45032C18.1268 1.42992 17.9607 1.44076 17.8016 1.48223C17.6425 1.52369 17.4936 1.59496 17.3633 1.69192C17.233 1.78888 17.124 1.90963 17.0425 2.0472L15.7925 4.1256C15.6267 4.40121 15.5818 4.72875 15.6676 5.03616C15.7534 5.34357 15.9629 5.60567 16.25 5.7648ZM22.8675 16.3608L20.7025 15.1608C20.5603 15.0808 20.403 15.0285 20.2397 15.0071C20.0763 14.9856 19.9102 14.9954 19.7508 15.0359C19.5914 15.0763 19.442 15.1466 19.311 15.2428C19.1801 15.3389 19.0702 15.459 18.9878 15.596C18.9054 15.7331 18.852 15.8844 18.8307 16.0413C18.8095 16.1983 18.8208 16.3577 18.864 16.5104C18.9072 16.6632 18.9814 16.8062 19.0824 16.9313C19.1834 17.0563 19.3092 17.161 19.4525 17.2392L21.6175 18.4392C21.9044 18.5958 22.2443 18.6371 22.5628 18.5541C22.8814 18.4711 23.1528 18.2705 23.3178 17.996C23.4829 17.7216 23.5282 17.3957 23.4438 17.0893C23.3594 16.7829 23.1523 16.5211 22.8675 16.3608ZM17.9575 18.6744C17.876 18.5368 17.767 18.4161 17.6367 18.3191C17.5064 18.2222 17.3575 18.1509 17.1984 18.1094C17.0393 18.068 16.8732 18.0571 16.7097 18.0775C16.5463 18.0979 16.3886 18.1492 16.2458 18.2283C16.1031 18.3074 15.978 18.4129 15.8779 18.5386C15.7778 18.6643 15.7045 18.8078 15.6624 18.9608C15.6202 19.1138 15.61 19.2733 15.6324 19.4301C15.6547 19.5869 15.7091 19.7379 15.7925 19.8744L17.0425 21.9528C17.124 22.0904 17.233 22.2111 17.3633 22.3081C17.4936 22.405 17.6425 22.4763 17.8016 22.5178C17.9607 22.5592 18.1268 22.5701 18.2903 22.5497C18.4537 22.5293 18.6114 22.478 18.7542 22.3989C18.8969 22.3198 19.022 22.2143 19.1221 22.0886C19.2222 21.9629 19.2955 21.8194 19.3376 21.6664C19.3798 21.5134 19.39 21.3539 19.3676 21.1971C19.3453 21.0403 19.2909 20.8893 19.2075 20.7528L17.9575 18.6744ZM23.75 10.8H21.25C20.9185 10.8 20.6005 10.9264 20.3661 11.1515C20.1317 11.3765 20 11.6817 20 12C20 12.3183 20.1317 12.6235 20.3661 12.8485C20.6005 13.0736 20.9185 13.2 21.25 13.2H23.75C24.0815 13.2 24.3995 13.0736 24.6339 12.8485C24.8683 12.6235 25 12.3183 25 12C25 11.6817 24.8683 11.3765 24.6339 11.1515C24.3995 10.9264 24.0815 10.8 23.75 10.8ZM12.5 19.2C12.1685 19.2 11.8505 19.3264 11.6161 19.5515C11.3817 19.7765 11.25 20.0817 11.25 20.4V22.8C11.25 23.1183 11.3817 23.4235 11.6161 23.6485C11.8505 23.8736 12.1685 24 12.5 24C12.8315 24 13.1495 23.8736 13.3839 23.6485C13.6183 23.4235 13.75 23.1183 13.75 22.8V20.4C13.75 20.0817 13.6183 19.7765 13.3839 19.5515C13.1495 19.3264 12.8315 19.2 12.5 19.2ZM8.75 18.2352C8.4629 18.0761 8.12172 18.033 7.8015 18.1153C7.48129 18.1977 7.20827 18.3988 7.0425 18.6744L5.7925 20.7528C5.62935 21.0283 5.58633 21.3545 5.67281 21.6603C5.7593 21.9661 5.96827 22.2267 6.25413 22.3851C6.53999 22.5436 6.87953 22.587 7.19865 22.506C7.51777 22.4251 7.79056 22.2262 7.9575 21.9528L9.2075 19.8744C9.37325 19.5988 9.41817 19.2712 9.33237 18.9638C9.24658 18.6564 9.03709 18.3943 8.75 18.2352ZM12.5 0C12.1685 0 11.8505 0.126428 11.6161 0.351472C11.3817 0.576515 11.25 0.88174 11.25 1.2V3.6C11.25 3.91826 11.3817 4.22348 11.6161 4.44853C11.8505 4.67357 12.1685 4.8 12.5 4.8C12.8315 4.8 13.1495 4.67357 13.3839 4.44853C13.6183 4.22348 13.75 3.91826 13.75 3.6V1.2C13.75 0.88174 13.6183 0.576515 13.3839 0.351472C13.1495 0.126428 12.8315 0 12.5 0Z" fill="white"/>
</svg>
